<svg width="361" height="463" viewBox="0 0 361 463" fill="none" xmlns="http://www.w3.org/2000/svg">
<line x1="181.345" y1="460.127" x2="224.345" y2="422.127" stroke="black" stroke-width="5"/>
<line x1="222.842" y1="422.784" x2="266.842" y2="399.784" stroke="black" stroke-width="5"/>
<path d="M266.5 401L297.582 391.559" stroke="black" stroke-width="5"/>
<path d="M297.365 393.188L296 357.5" stroke="black" stroke-width="5"/>
<path d="M295.628 358.395L310.604 324.546" stroke="black" stroke-width="5"/>
<path d="M310 325L337.895 297.939" stroke="black" stroke-width="5"/>
<line x1="336.5" y1="299" x2="336.5" y2="270" stroke="black" stroke-width="5"/>
<path d="M337 271.5L359.5 261" stroke="black" stroke-width="5"/>
<line x1="357.725" y1="263.038" x2="331.725" y2="206.038" stroke="black" stroke-width="5"/>
<line x1="331.724" y1="204.965" x2="351.724" y2="160.965" stroke="black" stroke-width="5"/>
<line x1="351.5" y1="162.038" x2="350.5" y2="96.0378" stroke="black" stroke-width="5"/>
<line x1="350.544" y1="96.5353" x2="357.544" y2="59.5353" stroke="black" stroke-width="5"/>
<line x1="357.575" y1="60.6063" x2="344.575" y2="8.60634" stroke="black" stroke-width="5"/>
<line x1="346.209" y1="10.3717" x2="325.209" y2="3.37171" stroke="black" stroke-width="5"/>
<path d="M320.1 32.9042L346.5 8.99996" stroke="black" stroke-width="5"/>
<path d="M231.987 86.8933L327 2" stroke="black" stroke-width="5"/>
<line x1="234.36" y1="86.1741" x2="262.36" y2="166.174" stroke="black" stroke-width="5"/>
<path d="M259.635 166.379L320.5 31.9999" stroke="black" stroke-width="5"/>
<path d="M260.5 166.5L312.319 139.663" stroke="black" stroke-width="5"/>
<line x1="311.278" y1="139.187" x2="351.278" y2="101.187" stroke="black" stroke-width="5"/>
<line x1="210.727" y1="193.848" x2="259.727" y2="164.848" stroke="black" stroke-width="5"/>
<line x1="262.366" y1="166.808" x2="234.366" y2="248.808" stroke="black" stroke-width="5"/>
<path d="M232.294 248.5H277.5" stroke="black" stroke-width="5"/>
<path d="M216.5 283L234 247" stroke="black" stroke-width="5"/>
<path d="M233 292L277.963 247.916" stroke="black" stroke-width="5"/>
<line x1="234.487" y1="290.745" x2="238.487" y2="329.745" stroke="black" stroke-width="5"/>
<line x1="235.692" y1="329.962" x2="215.692" y2="281.962" stroke="black" stroke-width="5"/>
<path d="M236 329L292.5 293" stroke="black" stroke-width="5"/>
<path d="M291.321 293.437L338.486 297.661" stroke="black" stroke-width="5"/>
<line x1="276.455" y1="248.034" x2="332.455" y2="204.034" stroke="black" stroke-width="5"/>
<path d="M297 392.5L235.923 329.044" stroke="black" stroke-width="5"/>
<path d="M237.488 329.188L224 424" stroke="black" stroke-width="5"/>
<path d="M182.5 424L181.5 462" stroke="black" stroke-width="5"/>
<line x1="181.162" y1="422.644" x2="226.162" y2="406.644" stroke="black" stroke-width="5"/>
<path d="M208.29 376.234L226.5 408" stroke="black" stroke-width="5"/>
<line x1="205.853" y1="376.72" x2="235.061" y2="327.72" stroke="black" stroke-width="5"/>
<line x1="182.332" y1="358.884" x2="209.332" y2="375.884" stroke="black" stroke-width="5"/>
<line x1="183.5" y1="281" x2="183.5" y2="361" stroke="black" stroke-width="5"/>
<line x1="154.668" y1="375.884" x2="181.668" y2="358.884" stroke="black" stroke-width="5"/>
<line x1="182.644" y1="279.116" x2="237.644" y2="327.116" stroke="black" stroke-width="5"/>
<path d="M182.5 281L212 194" stroke="black" stroke-width="5"/>
<path d="M180.5 150.5L213.226 195.136" stroke="black" stroke-width="5"/>
<path d="M180 93.5L232.796 86.5139" stroke="black" stroke-width="5"/>
<path d="M181 152.5V94" stroke="black" stroke-width="5"/>
<line x1="130.387" y1="84.5302" x2="181.387" y2="92.5302" stroke="black" stroke-width="5"/>
<path d="M150.761 195.155L181 151.5" stroke="black" stroke-width="5"/>
<path d="M152 194.5L182.416 280.506" stroke="black" stroke-width="5"/>
<line x1="102.268" y1="165.845" x2="153.268" y2="195.845" stroke="black" stroke-width="5"/>
<path d="M138 422.5L181.006 460.888" stroke="black" stroke-width="5"/>
<path d="M138.5 423.5L135.529 409.294" stroke="black" stroke-width="5"/>
<line x1="136.775" y1="407.623" x2="182.775" y2="422.623" stroke="black" stroke-width="5"/>
<line x1="157.155" y1="376.268" x2="137.155" y2="410.268" stroke="black" stroke-width="5"/>
<path d="M155.5 376.5L125.695 328.187" stroke="black" stroke-width="5"/>
<path d="M125.524 328.861L183 280.5" stroke="black" stroke-width="5"/>
<line x1="134.522" y1="410.332" x2="123.522" y2="328.332" stroke="black" stroke-width="5"/>
<path d="M64.4121 391.558L99.5 402" stroke="black" stroke-width="5"/>
<path d="M98.7092 401.678L138.5 423" stroke="black" stroke-width="5"/>
<path d="M65.5 392.5L124.914 327.965" stroke="black" stroke-width="5"/>
<path d="M124.626 328.399L146.5 280" stroke="black" stroke-width="5"/>
<line x1="131.487" y1="290.255" x2="127.487" y2="329.255" stroke="black" stroke-width="5"/>
<path d="M101 166L146.402 281.468" stroke="black" stroke-width="5"/>
<path d="M83.5 248L132.5 247.5" stroke="black" stroke-width="5"/>
<line x1="83.7099" y1="246.176" x2="131.71" y2="291.176" stroke="black" stroke-width="5"/>
<line x1="30.5573" y1="204.044" x2="84.5573" y2="247.044" stroke="black" stroke-width="5"/>
<line x1="71.3146" y1="292.874" x2="126.315" y2="326.874" stroke="black" stroke-width="5"/>
<path d="M23.9044 296.503L72 294" stroke="black" stroke-width="5"/>
<path d="M25.0607 296.939L51.5 326" stroke="black" stroke-width="5"/>
<path d="M25 270L25.5 298" stroke="black" stroke-width="5"/>
<path d="M67.5 362.5L50.6099 324.564" stroke="black" stroke-width="5"/>
<line x1="68.4951" y1="361.156" x2="66.4951" y2="393.156" stroke="black" stroke-width="5"/>
<path d="M4.27081 259L25.5 271.5" stroke="black" stroke-width="5"/>
<path d="M3.63446 260.379L30.5 204" stroke="black" stroke-width="5"/>
<line x1="12.3031" y1="160.028" x2="31.3031" y2="205.028" stroke="black" stroke-width="5"/>
<line x1="10.5012" y1="162.078" x2="8.50122" y2="98.078" stroke="black" stroke-width="5"/>
<line x1="51.3227" y1="143.854" x2="9.32272" y2="105.854" stroke="black" stroke-width="5"/>
<line x1="100.882" y1="168.236" x2="50.882" y2="143.236" stroke="black" stroke-width="5"/>
<line x1="132.35" y1="86.852" x2="103.35" y2="166.852" stroke="black" stroke-width="5"/>
<path d="M9.52244 98.2586L2.5 59.5" stroke="black" stroke-width="5"/>
<line x1="17.4108" y1="9.66179" x2="3.41082" y2="60.6618" stroke="black" stroke-width="5"/>
<path d="M41.9809 35.1006L15.5 10.5" stroke="black" stroke-width="5"/>
<line x1="38.8213" y1="3.36124" x2="15.8213" y2="11.3612" stroke="black" stroke-width="5"/>
<line x1="99.7176" y1="167.02" x2="40.7176" y2="35.0201" stroke="black" stroke-width="5"/>
<path d="M37 2L131.012 85.8928" stroke="black" stroke-width="5"/>
</svg>
