<svg width="357" height="461" viewBox="0 0 357 461" fill="none" xmlns="http://www.w3.org/2000/svg">
<line x1="178.669" y1="460.625" x2="221.669" y2="422.625" stroke="black"/>
<line x1="220.768" y1="423.557" x2="264.768" y2="400.557" stroke="black"/>
<line x1="263.879" y1="400.515" x2="295.879" y2="392.515" stroke="black"/>
<line x1="295.501" y1="393.029" x2="293.501" y2="358.029" stroke="black"/>
<line x1="293.543" y1="357.798" x2="308.543" y2="323.798" stroke="black"/>
<line x1="307.653" y1="324.64" x2="335.653" y2="297.64" stroke="black"/>
<line x1="335.5" y1="298" x2="335.5" y2="269" stroke="black"/>
<line x1="334.811" y1="269.537" x2="356.811" y2="260.537" stroke="black"/>
<line x1="356.545" y1="261.208" x2="330.545" y2="204.208" stroke="black"/>
<line x1="330.545" y1="204.793" x2="350.545" y2="160.793" stroke="black"/>
<line x1="350.5" y1="161.008" x2="349.5" y2="95.0076" stroke="black"/>
<line x1="349.509" y1="95.9071" x2="356.509" y2="58.9071" stroke="black"/>
<line x1="356.515" y1="59.1213" x2="343.515" y2="7.12127" stroke="black"/>
<line x1="343.842" y1="7.47434" x2="322.842" y2="0.474341" stroke="black"/>
<line x1="317.653" y1="32.6396" x2="343.653" y2="7.63958" stroke="black"/>
<line x1="229.662" y1="86.6311" x2="323.663" y2="0.631101" stroke="black"/>
<line x1="229.472" y1="85.8348" x2="257.472" y2="165.835" stroke="black"/>
<line x1="257.545" y1="165.793" x2="318.545" y2="31.7928" stroke="black"/>
<line x1="256.78" y1="165.551" x2="309.78" y2="139.551" stroke="black"/>
<line x1="309.656" y1="139.638" x2="349.656" y2="101.637" stroke="black"/>
<line x1="208.745" y1="194.57" x2="257.745" y2="165.57" stroke="black"/>
<line x1="257.473" y1="165.162" x2="229.473" y2="247.162" stroke="black"/>
<path d="M229 247.5H276" stroke="black"/>
<line x1="214.54" y1="281.803" x2="229.54" y2="246.803" stroke="black"/>
<line x1="229.654" y1="291.639" x2="275.654" y2="247.639" stroke="black"/>
<line x1="229.497" y1="290.948" x2="233.497" y2="328.948" stroke="black"/>
<line x1="233.535" y1="329.184" x2="214.535" y2="281.184" stroke="black"/>
<line x1="233.735" y1="328.576" x2="289.735" y2="293.576" stroke="black"/>
<line x1="289.042" y1="293.502" x2="336.042" y2="297.502" stroke="black"/>
<line x1="274.691" y1="248.607" x2="330.691" y2="204.607" stroke="black"/>
<line x1="295.641" y1="392.348" x2="233.641" y2="328.348" stroke="black"/>
<line x1="233.496" y1="328.063" x2="221.496" y2="423.063" stroke="black"/>
<line x1="178.5" y1="423" x2="178.5" y2="461" stroke="black"/>
<line x1="178.832" y1="423.529" x2="223.832" y2="407.529" stroke="black"/>
<line x1="204.43" y1="375.745" x2="223.43" y2="407.745" stroke="black"/>
<line x1="204.571" y1="376.744" x2="233.778" y2="327.744" stroke="black"/>
<line x1="178.266" y1="359.577" x2="205.266" y2="376.577" stroke="black"/>
<line x1="178.5" y1="280" x2="178.5" y2="360" stroke="black"/>
<line x1="151.745" y1="375.57" x2="178.745" y2="359.57" stroke="black"/>
<line x1="178.329" y1="279.623" x2="233.329" y2="327.623" stroke="black"/>
<line x1="178.529" y1="280.832" x2="209.529" y2="193.832" stroke="black"/>
<line x1="178.409" y1="150.712" x2="209.409" y2="194.712" stroke="black"/>
<line x1="178.932" y1="93.5046" x2="229.932" y2="86.5046" stroke="black"/>
<line x1="178.5" y1="152" x2="178.5" y2="93" stroke="black"/>
<line x1="127.077" y1="85.506" x2="178.077" y2="93.506" stroke="black"/>
<line x1="148.587" y1="194.718" x2="178.587" y2="150.718" stroke="black"/>
<line x1="148.472" y1="193.835" x2="178.472" y2="279.835" stroke="black"/>
<line x1="98.2535" y1="164.569" x2="149.254" y2="194.569" stroke="black"/>
<line x1="136.335" y1="422.629" x2="178.335" y2="460.629" stroke="black"/>
<line x1="136.51" y1="423.098" x2="133.51" y2="408.098" stroke="black"/>
<line x1="133.155" y1="408.525" x2="179.155" y2="423.525" stroke="black"/>
<line x1="152.439" y1="374.239" x2="133.439" y2="409.239" stroke="black"/>
<path d="M152.5 375.5L122.695 327.187" stroke="black"/>
<line x1="122.675" y1="327.62" x2="178.675" y2="279.62" stroke="black"/>
<line x1="133.504" y1="409.066" x2="122.504" y2="327.066" stroke="black"/>
<line x1="61.1374" y1="391.519" x2="96.1374" y2="401.519" stroke="black"/>
<line x1="95.2279" y1="401.555" x2="136.228" y2="422.555" stroke="black"/>
<line x1="61.6381" y1="391.655" x2="122.638" y2="327.655" stroke="black"/>
<line x1="122.538" y1="327.808" x2="142.538" y2="279.808" stroke="black"/>
<line x1="127.495" y1="291.067" x2="122.495" y2="328.067" stroke="black"/>
<line x1="98.4675" y1="164.823" x2="142.467" y2="280.823" stroke="black"/>
<path d="M79 247L129.5 246.5" stroke="black"/>
<line x1="79.342" y1="246.635" x2="127.342" y2="291.635" stroke="black"/>
<line x1="26.3115" y1="204.609" x2="80.3115" y2="247.609" stroke="black"/>
<line x1="67.2629" y1="293.575" x2="122.263" y2="327.575" stroke="black"/>
<line x1="20.9681" y1="296.501" x2="67.9681" y2="293.501" stroke="black"/>
<line x1="21.3536" y1="296.646" x2="49.3536" y2="324.646" stroke="black"/>
<line x1="21.5" y1="269" x2="21.5" y2="297" stroke="black"/>
<line x1="63.5366" y1="360.188" x2="48.5366" y2="323.188" stroke="black"/>
<line x1="63.499" y1="360.031" x2="61.499" y2="392.031" stroke="black"/>
<line x1="1.22361" y1="259.553" x2="21.2236" y2="269.553" stroke="black"/>
<line x1="1.54482" y1="259.793" x2="26.5448" y2="204.793" stroke="black"/>
<line x1="7.46062" y1="159.806" x2="26.4606" y2="204.806" stroke="black"/>
<line x1="7.5" y1="160" x2="7.5" y2="97" stroke="black"/>
<line x1="49.6645" y1="141.371" x2="7.66454" y2="103.371" stroke="black"/>
<line x1="98.7764" y1="165.447" x2="48.7764" y2="140.447" stroke="black"/>
<line x1="127.47" y1="85.1704" x2="98.4701" y2="165.17" stroke="black"/>
<line x1="7.50748" y1="97.0862" x2="0.507485" y2="57.0862" stroke="black"/>
<line x1="12.4862" y1="8.11669" x2="0.486193" y2="58.1167" stroke="black"/>
<line x1="39.6603" y1="33.3669" x2="12.6603" y2="8.36688" stroke="black"/>
<line x1="35.1643" y1="0.472248" x2="12.1643" y2="8.47225" stroke="black"/>
<line x1="98.5435" y1="165.204" x2="39.5435" y2="33.204" stroke="black"/>
<line x1="34.3373" y1="0.630929" x2="127.337" y2="85.6309" stroke="black"/>
</svg>
